<svg xmlns="http://www.w3.org/2000/svg" viewBox="0 0 32 32">
  <rect x="1" y="1" width="30" height="30" rx="6" fill="#0b3d2e" stroke="#15110f" stroke-width="2"/>
  <rect x="3.5" y="3.5" width="25" height="25" rx="4" fill="none" stroke="#f4c430" stroke-width="1.4" opacity="0.85"/>
  <rect x="8.4" y="6.9" width="3" height="3" fill="#15110f"/>
  <rect x="11.4" y="6.9" width="3" height="3" fill="#15110f"/>
  <rect x="14.4" y="6.9" width="3" height="3" fill="#15110f"/>
  <rect x="17.4" y="6.9" width="3" height="3" fill="#15110f"/>
  <rect x="20.4" y="6.9" width="3" height="3" fill="#15110f"/>
  <rect x="8.4" y="9.9" width="3" height="3" fill="#15110f"/>
  <rect x="23.4" y="9.9" width="3" height="3" fill="#15110f"/>
  <rect x="8.4" y="12.9" width="3" height="3" fill="#15110f"/>
  <rect x="23.4" y="12.9" width="3" height="3" fill="#15110f"/>
  <rect x="8.4" y="15.9" width="3" height="3" fill="#15110f"/>
  <rect x="11.4" y="15.9" width="3" height="3" fill="#15110f"/>
  <rect x="14.4" y="15.9" width="3" height="3" fill="#15110f"/>
  <rect x="17.4" y="15.9" width="3" height="3" fill="#15110f"/>
  <rect x="20.4" y="15.9" width="3" height="3" fill="#15110f"/>
  <rect x="8.4" y="18.9" width="3" height="3" fill="#15110f"/>
  <rect x="23.4" y="18.9" width="3" height="3" fill="#15110f"/>
  <rect x="8.4" y="21.9" width="3" height="3" fill="#15110f"/>
  <rect x="23.4" y="21.9" width="3" height="3" fill="#15110f"/>
  <rect x="8.4" y="24.9" width="3" height="3" fill="#15110f"/>
  <rect x="11.4" y="24.9" width="3" height="3" fill="#15110f"/>
  <rect x="14.4" y="24.9" width="3" height="3" fill="#15110f"/>
  <rect x="17.4" y="24.9" width="3" height="3" fill="#15110f"/>
  <rect x="20.4" y="24.9" width="3" height="3" fill="#15110f"/>
  <rect x="7.0" y="5.5" width="3" height="3" fill="#f4c430"/>
  <rect x="10.0" y="5.5" width="3" height="3" fill="#f4c430"/>
  <rect x="13.0" y="5.5" width="3" height="3" fill="#f4c430"/>
  <rect x="16.0" y="5.5" width="3" height="3" fill="#f4c430"/>
  <rect x="19.0" y="5.5" width="3" height="3" fill="#f4c430"/>
  <rect x="7.0" y="8.5" width="3" height="3" fill="#f4c430"/>
  <rect x="22.0" y="8.5" width="3" height="3" fill="#f4c430"/>
  <rect x="7.0" y="11.5" width="3" height="3" fill="#f4c430"/>
  <rect x="22.0" y="11.5" width="3" height="3" fill="#f4c430"/>
  <rect x="7.0" y="14.5" width="3" height="3" fill="#f4c430"/>
  <rect x="10.0" y="14.5" width="3" height="3" fill="#f4c430"/>
  <rect x="13.0" y="14.5" width="3" height="3" fill="#f4c430"/>
  <rect x="16.0" y="14.5" width="3" height="3" fill="#f4c430"/>
  <rect x="19.0" y="14.5" width="3" height="3" fill="#f4c430"/>
  <rect x="7.0" y="17.5" width="3" height="3" fill="#f4c430"/>
  <rect x="22.0" y="17.5" width="3" height="3" fill="#f4c430"/>
  <rect x="7.0" y="20.5" width="3" height="3" fill="#f4c430"/>
  <rect x="22.0" y="20.5" width="3" height="3" fill="#f4c430"/>
  <rect x="7.0" y="23.5" width="3" height="3" fill="#f4c430"/>
  <rect x="10.0" y="23.5" width="3" height="3" fill="#f4c430"/>
  <rect x="13.0" y="23.5" width="3" height="3" fill="#f4c430"/>
  <rect x="16.0" y="23.5" width="3" height="3" fill="#f4c430"/>
  <rect x="19.0" y="23.5" width="3" height="3" fill="#f4c430"/>
</svg>
